<svg xmlns="http://www.w3.org/2000/svg" viewBox="0 0 120 120" role="img" aria-label="ZyntroTech">
  <defs>
    <linearGradient id="g0" x1="0" y1="0" x2="1" y2="1"><stop offset="0" stop-color="#2ea39a"/><stop offset="1" stop-color="#1f867f"/></linearGradient><linearGradient id="g1" x1="0" y1="0" x2="1" y2="1"><stop offset="0" stop-color="#3185bd"/><stop offset="1" stop-color="#2470a6"/></linearGradient><linearGradient id="g2" x1="0" y1="0" x2="1" y2="1"><stop offset="0" stop-color="#1b426c"/><stop offset="1" stop-color="#11304f"/></linearGradient><linearGradient id="g3" x1="0" y1="0" x2="1" y2="1"><stop offset="0" stop-color="#4aa53f"/><stop offset="1" stop-color="#388a31"/></linearGradient><linearGradient id="g4" x1="0" y1="0" x2="1" y2="1"><stop offset="0" stop-color="#3a9a55"/><stop offset="1" stop-color="#2f8a6a"/></linearGradient><linearGradient id="g5" x1="0" y1="0" x2="1" y2="1"><stop offset="0" stop-color="#2f9070"/><stop offset="1" stop-color="#2a8a7e"/></linearGradient>
  </defs>
  <g stroke="#ffffff" stroke-width="2.8" stroke-linejoin="round" stroke-linecap="round">
    <path d="M 65.44 53.88 Q 60.97 56.12 60.87 51.12 L 60.10 13.00 Q 60.00 8.00 64.33 10.50 L 100.70 31.50 Q 105.03 34.00 100.56 36.24 Z" fill="url(#g0)"/><path d="M 68.02 61.65 Q 63.85 58.90 68.12 56.31 L 100.75 36.59 Q 105.03 34.00 105.03 39.00 L 105.03 81.00 Q 105.03 86.00 100.86 83.25 Z" fill="url(#g1)"/><path d="M 62.59 67.77 Q 62.88 62.78 67.26 65.19 L 100.65 83.59 Q 105.03 86.00 100.70 88.50 L 64.33 109.50 Q 60.00 112.00 60.29 107.01 Z" fill="url(#g2)"/><path d="M 54.56 66.12 Q 59.03 63.88 59.13 68.88 L 59.90 107.00 Q 60.00 112.00 55.67 109.50 L 19.30 88.50 Q 14.97 86.00 19.44 83.76 Z" fill="url(#g3)"/><path d="M 51.98 58.35 Q 56.15 61.10 51.88 63.69 L 19.25 83.41 Q 14.97 86.00 14.97 81.00 L 14.97 39.00 Q 14.97 34.00 19.14 36.75 Z" fill="url(#g4)"/><path d="M 57.41 52.23 Q 57.12 57.22 52.74 54.81 L 19.35 36.41 Q 14.97 34.00 19.30 31.50 L 55.67 10.50 Q 60.00 8.00 59.71 12.99 Z" fill="url(#g5)"/>
  </g>
</svg>